<?xml version="1.0" encoding="utf-8"?>
<!-- Generator: Adobe Illustrator 16.0.0, SVG Export Plug-In . SVG Version: 6.00 Build 0)  -->
<!DOCTYPE svg PUBLIC "-//W3C//DTD SVG 1.1//EN" "http://www.w3.org/Graphics/SVG/1.1/DTD/svg11.dtd">
<svg version="1.1" id="Шар_1" xmlns="http://www.w3.org/2000/svg" xmlns:xlink="http://www.w3.org/1999/xlink" x="0px" y="0px" viewBox="0 0 25.8 22.4" style="enable-background:new 0 0 25.8 22.4;" xml:space="preserve">
<g>
	<polygon style="fill:#FFFFFF;" points="0,6.4 0,16 5.5,16 12.7,22.4 12.7,0 5.5,6.4 	"/>
	<path style="fill:#FFFFFF;" d="M21.3,11.2c0-2.8-2.3-5.1-5.1-5.1v2c1.7,0,3.1,1.4,3.1,3.1c0,1.7-1.4,3.1-3.1,3.1v2
		C19,16.3,21.3,14,21.3,11.2z"/>
	<path style="fill:#FFFFFF;" d="M16.2,1.6v2c4.2,0,7.6,3.4,7.6,7.6c0,4.2-3.4,7.6-7.6,7.6v2c5.3,0,9.6-4.3,9.6-9.6
		C25.8,5.9,21.5,1.6,16.2,1.6z"/>
</g>
</svg>
