<svg xmlns="http://www.w3.org/2000/svg" viewBox="0 0 47.98774 51.909496"><path d="M4.238 51.33c-4.463-1.795-5.756-16.366-2.156-24.302 1.115-2.459 3.153-5.946 4.529-7.75L9.11 16h29.798l2.5 3.278c4.57 5.993 6.556 11.732 6.58 19.022.023 7.122-1.657 11.979-4.523 13.079-1.92.736-37.384.693-39.227-.048zm21.133-6.83c.317-.825 1.249-1.5 2.072-1.5 2.085 0 3.855-3.712 3.136-6.578-.362-1.442-1.587-2.64-3.085-3.015-1.847-.464-2.485-1.29-2.485-3.215 0-2.016.267-2.325 1.2-1.392 1.66 1.659 3.8 1.504 3.8-.274 0-1.963-5.4-4.68-7.686-3.867-2.911 1.035-5.314 3.507-5.314 5.466 0 .998 1.35 2.813 3 4.033 2.854 2.11 4.132 5.842 2 5.842-.55 0-1-.45-1-1s-.9-1-2-1c-3.01 0-2.42 2.854.994 4.797 1.647.936 2.997 2.04 3 2.453.012 1.347 1.778.788 2.368-.75zm-.362-6c0-1.49.431-2.352 1-2 .55.34 1 1.24 1 2s-.45 1.66-1 2c-.569.352-1-.51-1-2zm-3.553-7.587c-.37-.598-.171-1.588.44-2.2.818-.817 1.113-.528 1.113 1.087 0 2.415-.519 2.787-1.553 1.113zM8.544 8.896C6.6 7.19 5.01 5.426 5.01 4.978 5.01 3.4 11.783 0 14.927 0c1.75 0 4.51.687 6.132 1.526 2.645 1.367 3.256 1.367 5.9 0C28.583.686 31.343 0 33.093 0c3.144 0 9.917 3.4 9.917 4.978 0 .448-1.59 2.211-3.534 3.918C35.943 11.996 35.928 12 24.009 12c-11.918 0-11.933-.003-15.465-3.104z" fill="#404040"/></svg>