<svg xmlns="http://www.w3.org/2000/svg" viewBox="0 0 42.000004 51.744888"><path d="M13.638 50.245c-.48-1.25.665-1.5 6.893-1.5 5.972 0 7.469.3 7.469 1.5 0 1.188-1.433 1.5-6.893 1.5-5.205 0-7.034-.368-7.469-1.5zM0 45.344c0-5.157.166-5.5 3.655-7.558 3.66-2.159 5.285-1.676 5.33 1.584.008.619.29 2.497.625 4.174.558 2.788.263 3.225-3.46 5.125-2.239 1.142-4.538 2.076-5.11 2.076-.592 0-1.04-2.33-1.04-5.401zm35.75 3.333c-2.127-1.123-3.748-2.727-3.744-3.706.007-2.088 1.928-9.226 2.484-9.226.218 0 1.996.944 3.953 2.099 3.378 1.993 3.557 2.37 3.557 7.5 0 6.094-.507 6.364-6.25 3.333zm-23.785-4.525c-2.272-5.975-3.322-16.076-2.392-23.003l.927-6.904 9.912-.288c5.785-.168 10.335.135 10.928.728 1.924 1.924 1.903 17.055-.033 24.56l-1.807 7-8.26.29c-8.144.287-8.273.254-9.275-2.383zM25.33 31.5c1.541-3.155 1.647-4.297.67-7.258-2.16-6.543-7.665-6.766-9.884-.4-1.245 3.57-.574 7.567 1.713 10.196 2.38 2.735 5.428 1.704 7.5-2.538zM12 10.895c0-1.137 5.24-8.299 7.333-10.023 1.413-1.163 1.921-1.163 3.334 0C24.76 2.596 30 9.758 30 10.895c0 .467-4.05.85-9 .85s-9-.383-9-.85z" fill="#414141"/></svg>