<svg xmlns="http://www.w3.org/2000/svg" viewBox="0 0 60 36.040405"><path d="M0 35.698c0-.177.717-2.427 1.594-5 1.408-4.132 1.933-4.678 4.5-4.678 1.685 0 2.906.535 2.906 1.272 0 .7 1.383 2.95 3.073 5l3.073 3.728H7.573C3.408 36.02 0 35.875 0 35.698zm20.52-1.965c-11.424-6.47-11.424-24.955 0-31.426 5.432-3.076 13.528-3.076 18.96 0 11.424 6.47 11.424 24.956 0 31.426-5.432 3.076-13.528 3.076-18.96 0zm15.513-5.23c7.823-4.045 7.823-16.92 0-20.966-5.58-2.885-13.033-1.21-16.472 3.7-1.787 2.551-2.072 9.96-.497 12.902 2.752 5.143 11.241 7.326 16.969 4.364zm-5.43-6.5c-3.325-3.68-3.676-4.589-3.405-8.794.274-4.254.534-4.689 2.802-4.689 2.197 0 2.538.485 2.817 4 .207 2.6 1.202 4.929 2.843 6.651 2.704 2.84 2.82 6.133.234 6.631-.87.168-3.251-1.542-5.29-3.8zm17.324 10.29c1.69-2.051 3.073-4.301 3.073-5 0-.738 1.22-1.273 2.906-1.273 2.567 0 3.092.546 4.5 4.678.877 2.573 1.594 4.823 1.594 5 0 .177-3.408.322-7.573.322h-7.573z" fill="#424242"/></svg>